<svg width="414" height="144" viewBox="0 0 414 144" fill="none" xmlns="http://www.w3.org/2000/svg">
<g clip-path="url(#clip0_361_14536)">
<path fill-rule="evenodd" clip-rule="evenodd" d="M121.2 51C97.5 46 84.3 49.8 73.2 56.7C63.4 62.8 57.4 75.6 61.3 84.5C61.8 85.7 62.4 87 63 88.1C64.6 86.7 77.6 75.9 92.1 72.4C73.6 80.6 64.5 91 64.5 91C60.5 95 56.9 99.6 55.3 105.2C48.6 80.7 57.3 49 75.6 30.9C77.8 32.8 80.5 33.7 84.2 33.6C87.7 33.5 91.8 32.2 94.5 29.9C101.8 23.6 98.6 9.89996 108.5 1.99996C93.5 -1.20004 85.2 1.19996 78.2 5.59996C72 9.39996 68.2 17.5 70.6 23.2C71.1 24.4 71.7 25.6 72.3 26.6C73.3 25.5 84.7 13.8 94.7 9.69996C84.3 16.4 73.5 28 73.3 28.3C64.4 37.6 57.5 49.8 53.1 62.3C52.4 57.6 51.1 53.2 49.1 49C49 48.9 49 48.7 48.9 48.6V48.5L48.8 48.4L48.7 48.3V48.2L48.6 48.1L48.8 48L48.7 47.9L48.6 47.8V47.7H48.5L48.4 47.6L48.3 47.5L48.2 47.3L48.1 47.2V47.1L48.2 47L48.1 46.9L48 46.8V46.6V46.5L47.9 46.4L47.8 46.3L47.7 46.2H47.6L47.5 46.1L47.6 46L47.5 45.9V45.8L47.4 45.7L47.3 45.5L47.1 45.3L47 45.2V45.1V45V44.9V44.8L46.9 44.7L46.8 44.6L46.7 44.5L46.6 44.4L46.5 44.2L46.4 44.1V44L46.3 43.9L46.2 43.8L46.1 43.7L46 43.5V43.4L45.9 43.2L45.8 43L45.7 42.9L45.6 42.7L45.5 42.5L45.4 42.3L45.3 42.1H45.2L45.1 42L45 41.9V41.8L44.9 41.7L44.8 41.5L44.7 41.3V41.2L44.6 41.1L44.4 41L44.3 40.9L44.2 40.8L44.1 40.6L44 40.4V40.3L43.9 40.1C39.7 34.2 33.4 27.1 25.6 22.9C36.9 25.9 47.8 39.6 51.4 44.7C52.2 43.4 52.8 42 53.5 40.4C56.9 32.7 51.7 21.5 43.2 16.3C33.6 10.3 22.1 6.99996 1.5 11.3C15.2 22.1 10.7 41 20.7 49.7C24.5 52.9 30 54.6 34.9 54.8C39.7 55 43.4 53.7 46.2 51.4C49.2 57.4 50 64.2 48.9 79.5C47.1 91 47.5 102 50.6 111C53.8 120.8 54.4 121.9 64 133.8C67 131.4 77.8 138.8 68.4 127.6C66.8 125.6 65.3 123.8 63.9 121.9H64C59.9 116.5 58.3 111.6 58.8 107.1C59.3 103.3 62.7 98.3 66.7 93.9C70.5 98.8 75.4 101.4 83 101.2C88.6 101 95.1 99.1 99.4 95.3C110.6 85.3 105.5 63.5 121.2 51Z" fill="#CF0324"/>
<path fill-rule="evenodd" clip-rule="evenodd" d="M66.5 130.4C98.8 130.4 125.9 136.5 132.9 142.3C115 139.4 91.7 137.3 66.3 137.3C40.9 137.3 17.8 139.4 0 142.3C7.1 136.4 34.2 130.4 66.5 130.4Z" fill="#CF0324"/>
<path d="M386.3 48C393.9 48 396.9 48.7999 399.7 57.5999L403.2 68.4H412.8C411.1 63.7 409.9 59 408 54.2999C405.2 45.9 401.9 43.0999 395.5 42.0999L413 21.2H402.2C396.9 28.1 391.6 34.9 386.4 41.7V21.2H377.4V68.4H386.4V48H386.3Z" fill="black"/>
<path d="M333.9 21.2H324.9V68.4H340.3C350.6 68.4 358.7 64.7 358.7 53.9C358.7 39.1 344.4 40.2999 333.9 40.2999V21.2ZM370.6 21.2H361.6V68.4H370.6V21.2ZM349.3 54.0999C349.3 62.7 341.1 61.7999 333.9 61.7999V47.2C340.9 47.2 349.3 46.0999 349.3 54.0999Z" fill="black"/>
<path d="M294.4 28.2H309.1V68.4H318.1L318 21.2H285.3V43.7999C285.3 59.2 283.1 61 278.3 62.0999V68.6999C290.9 67.9999 294.3 61.6 294.3 45.7V28.2H294.4Z" fill="black"/>
<path d="M260.6 5.19995C260.1 7.89995 258.2 9.79995 255.4 9.79995C252.9 9.79995 250.7 7.79995 250.4 5.19995H246.3C246.3 10.6 249.6 14.8 255.1 14.8C260.7 14.8 264.7 10.9 264.7 5.19995H260.6ZM246 68.4L266 35.2V68.4H274.2V21.2H266L245.8 55.2V21.2H237.6V68.4H246Z" fill="black"/>
<path d="M230.8 68.4V35.3C230.8 25.2 225.7 20.1 215.5 20.1C206.2 20.1 198 23.8 198 34.3H207.4C207.4 24.9 220 25.3 221.6 31.5C222.4 34.4 222 38.2 222 41.3C211.9 41.3 195.9 43.5 195.9 56.8C195.9 64.9 201.3 69.5 209.2 69.5C217.4 69.5 221.9 62.5 222 62.5V68.4H230.8ZM221.9 50C221.9 55.5 216.8 62.6 210.7 62.6C204.2 62.6 200.9 47.4 221.9 47.4V50Z" fill="black"/>
<path d="M160.5 28.3V8H187V0H150.6V68.4H169.4C182.7 68.4 192.5 63.6 192.5 48.2C192.5 33.5 182.9 28.4 170.7 28.4H160.5V28.3ZM182.6 48.7C182.6 62.1 170.3 60.4 160.5 60.4V36.3C171 36.3 182.6 35 182.6 48.7Z" fill="black"/>
<path d="M413.8 109.8C413.8 99.1 407.7 93.3 397.1 93.3C383 93.3 377.2 103.2 377.2 116.3C377.2 130.9 384.3 142.7 400.1 142.7C404.5 142.7 408.9 142.2 413.1 140.9V134.7C410.6 135.5 408.3 135.7 405.6 135.7C392.8 135.7 387 126.5 387 114.6C387 108.7 389.1 100.2 396.6 100.2C402.4 100.2 403.8 104.9 403.8 109.8H413.8Z" fill="black"/>
<path d="M372 94.9H363.1V114H345.6V94.9H336.5V142.1H345.6V121.3H363.1V142.1H372.1L372 94.9Z" fill="black"/>
<path d="M293.1 95.1H284.2V114.1H266.7V95.1H257.6V142.3H266.7V121.4H284.2V142.3H293.2L293.1 95.1Z" fill="black"/>
<path d="M224.2 142.3L244.2 109V142.3H252.3V95.1H244.2L224.1 129.1V95.1H215.8V142.3H224.2Z" fill="black"/>
<path d="M210.3 106.8C210.3 92.1 201.6 82.1 185.1 80.8V72.7H175.6V80.8C159.3 82 150.4 92.7 150.4 107.4C150.4 121.1 160.1 131.4 175.6 132.6V142.3H185.1V132.6C200.5 131.3 210.3 120.3 210.3 106.8ZM200.1 106.5C200.1 117.1 194.9 124.2 185 125.1V88.2C194.6 89 200.1 96.3 200.1 106.5ZM160.7 106.5C160.7 96.4 165.9 89.4 175.6 88.2V125.1C165.9 123.9 160.7 116.8 160.7 106.5Z" fill="black"/>
<path d="M331.4 142.3V109.9C331.4 100 326.4 95.1 316.4 95.1C307.2 95.1 299.3 98.7 299.3 109H308.4C308.4 99.8 320.7 100.2 322.3 106.3C323.1 109.2 322.7 112.8 322.7 115.9C312.8 115.9 297.2 118 297.2 131C297.2 138.9 302.5 143.4 310.2 143.4C318.3 143.4 322.6 136.6 322.7 136.6V142.3H331.4ZM322.7 124.3C322.7 129.7 317.8 136.6 311.8 136.6C305.4 136.6 302.2 121.7 322.7 121.7V124.3Z" fill="black"/>
</g>
<defs>
<clipPath id="clip0_361_14536">
<rect width="413.8" height="143.3" fill="white"/>
</clipPath>
</defs>
</svg>
